<svg width="1000" height="124" viewBox="0 0 1000 124" fill="none" xmlns="http://www.w3.org/2000/svg">
<path d="M588.321 5.88351C492.849 3.23691 411.427 24.9979 382.65 36.2092L311.802 51.594C309.951 51.996 308.073 52.1825 306.179 52.1232C272.212 51.0595 201.675 43.8346 122.026 52.659C116.521 53.269 111.019 54.2782 105.895 56.3823C76.4946 68.4547 67.9236 94.1069 78.0696 123.162C95.8436 123.162 289.455 123.662 913.07 123.662C1029.57 67.1624 707.661 9.19176 588.321 5.88351Z" fill="white"/>
<path d="M548.57 20.6624H345.57V100.33H548.57V20.6624Z" fill="#D5F7FC" fill-opacity="0.14" stroke="#3197D6" stroke-width="0.659349" stroke-linecap="round"/>
<path d="M412.338 47.6627L393.239 66.0796C396.195 69.2627 404.153 77.539 412.338 85.1785C424.889 68.2623 417.568 53.1196 412.338 47.6627Z" fill="#82D5F2"/>
<path d="M387.1 95.4101C403.299 95.4101 416.431 82.2784 416.431 66.0796C416.431 49.8809 403.299 36.7491 387.1 36.7491C370.901 36.7491 357.77 49.8809 357.77 66.0796C357.77 82.2784 370.901 95.4101 387.1 95.4101Z" stroke="#3197D6" stroke-width="0.759239" stroke-linecap="round"/>
<path d="M387.782 66.7617V36.7491C398.259 36.7491 406.017 43.3705 408.927 46.2986L387.782 66.7617Z" fill="#3197D6"/>
<path d="M388.041 66.4843L408.504 85.5833" stroke="#3197D6" stroke-width="0.759239"/>
<path d="M351.321 29.2146C352.413 29.2146 353.299 28.329 353.299 27.2366C353.299 26.1441 352.413 25.2585 351.321 25.2585C350.228 25.2585 349.343 26.1441 349.343 27.2366C349.343 28.329 350.228 29.2146 351.321 29.2146Z" fill="#3197D6"/>
<path d="M359.893 29.2146C360.985 29.2146 361.871 28.329 361.871 27.2366C361.871 26.1441 360.985 25.2585 359.893 25.2585C358.8 25.2585 357.915 26.1441 357.915 27.2366C357.915 28.329 358.8 29.2146 359.893 29.2146Z" fill="#3197D6"/>
<path d="M368.464 29.2146C369.556 29.2146 370.442 28.329 370.442 27.2366C370.442 26.1441 369.556 25.2585 368.464 25.2585C367.371 25.2585 366.486 26.1441 366.486 27.2366C366.486 28.329 367.371 29.2146 368.464 29.2146Z" fill="#3197D6"/>
<path d="M534.683 32.9189H436.671V41.9316H534.683V32.9189Z" fill="#61BBE6"/>
<path d="M534.582 44.6624H436.57V95.9218H534.582V44.6624Z" fill="#61BBE6"/>
<path d="M465.535 55.1771L436.671 95.7341H535.247L514.7 71.1202L491.463 86.5039L465.535 55.1771Z" fill="#D5F7FC"/>
<path d="M516.095 59.6834C519.206 59.6834 521.728 57.1615 521.728 54.0505C521.728 50.9395 519.206 48.4176 516.095 48.4176C512.984 48.4176 510.462 50.9395 510.462 54.0505C510.462 57.1615 512.984 59.6834 516.095 59.6834Z" fill="white"/>
<path d="M-94 97.2319H41.1336" stroke="#D5F7FC" stroke-width="0.860727" stroke-linecap="round"/>
<g opacity="0.78">
<path opacity="0.78" d="M106.528 17.6624H13.5698V80.8223H106.528V17.6624Z" stroke="white" stroke-width="0.605808" stroke-linecap="round"/>
<path opacity="0.78" d="M13.873 23.8374H106.226" stroke="white" stroke-width="0.605808" stroke-linecap="round"/>
<path opacity="0.78" d="M17.4567 22.1969C18.1723 22.1969 18.7523 21.6168 18.7523 20.9013C18.7523 20.1858 18.1723 19.6057 17.4567 19.6057C16.7412 19.6057 16.1611 20.1858 16.1611 20.9013C16.1611 21.6168 16.7412 22.1969 17.4567 22.1969Z" fill="#D5F7FC"/>
<path opacity="0.78" d="M22.9626 22.1969C23.6781 22.1969 24.2582 21.6168 24.2582 20.9013C24.2582 20.1858 23.6781 19.6057 22.9626 19.6057C22.247 19.6057 21.667 20.1858 21.667 20.9013C21.667 21.6168 22.247 22.1969 22.9626 22.1969Z" fill="#D5F7FC"/>
<path opacity="0.78" d="M28.4689 22.1969C29.1845 22.1969 29.7645 21.6168 29.7645 20.9013C29.7645 20.1858 29.1845 19.6057 28.4689 19.6057C27.7534 19.6057 27.1733 20.1858 27.1733 20.9013C27.1733 21.6168 27.7534 22.1969 28.4689 22.1969Z" fill="#D5F7FC"/>
<path opacity="0.78" d="M43.368 30.9421H19.0757V51.9954H43.368V30.9421Z" fill="#82D5F2"/>
<path opacity="0.78" d="M43.368 56.854H19.0757V77.9073H43.368V56.854Z" fill="#82D5F2"/>
<path opacity="0.78" d="M72.5193 30.9421H48.2271V51.9954H72.5193V30.9421Z" fill="#82D5F2"/>
<path opacity="0.78" d="M72.5193 56.854H48.2271V77.9073H72.5193V56.854Z" fill="#82D5F2"/>
<path opacity="0.78" d="M100.698 30.9421H76.4058V51.9954H100.698V30.9421Z" fill="#82D5F2"/>
<path opacity="0.78" d="M100.698 56.854H76.4058V77.9073H100.698V56.854Z" fill="#82D5F2"/>
<path opacity="0.78" d="M41.7493 29.3226H17.457V50.052H41.7493V29.3226Z" stroke="#D5F7FC" stroke-width="0.605808" stroke-linecap="round"/>
<path opacity="0.78" d="M41.7493 55.2344H17.457V75.9638H41.7493V55.2344Z" stroke="#D5F7FC" stroke-width="0.605808" stroke-linecap="round"/>
<path opacity="0.78" d="M70.9002 29.3226H46.6079V50.052H70.9002V29.3226Z" stroke="#D5F7FC" stroke-width="0.605808" stroke-linecap="round"/>
<path opacity="0.78" d="M70.9002 55.2344H46.6079V75.9638H70.9002V55.2344Z" stroke="#D5F7FC" stroke-width="0.605808" stroke-linecap="round"/>
<path opacity="0.78" d="M99.0779 29.3226H74.7856V50.052H99.0779V29.3226Z" stroke="#D5F7FC" stroke-width="0.605808" stroke-linecap="round"/>
<path opacity="0.78" d="M99.0779 55.2344H74.7856V75.9638H99.0779V55.2344Z" stroke="#D5F7FC" stroke-width="0.605808" stroke-linecap="round"/>
</g>
<path d="M877.339 4.71436H744.297V44.5594H877.339V4.71436Z" fill="white"/>
<path d="M872.275 1H739.908V40.1697H872.275V1Z" stroke="#3197D6" stroke-width="0.675339"/>
<path d="M866.534 13.4939H784.818V15.5199H866.534V13.4939Z" fill="#3197D6"/>
<path d="M814.533 24.2992H784.818V26.3252H814.533V24.2992Z" fill="#3197D6"/>
<path d="M773.568 12.2822H749.468V34.6611H773.568V12.2822Z" stroke="#3197D6" stroke-width="0.860727"/>
<path d="M781.032 79.0249H754.932V105.85H781.032V79.0249Z" stroke="#3197D6" stroke-width="0.725"/>
<path d="M777.395 75.6624H750.57V103.212H777.395V75.6624Z" fill="#ADEBFA"/>
<path d="M761.549 94.5642V97.8267H766.675V94.5642" stroke="#3197D6" stroke-width="0.932143" stroke-linecap="round"/>
<path fill-rule="evenodd" clip-rule="evenodd" d="M766.209 94.0933C767.863 93.3079 769.006 91.6227 769.006 89.6705C769.006 86.9677 766.815 84.7767 764.112 84.7767C761.409 84.7767 759.218 86.9677 759.218 89.6705C759.218 91.6226 760.361 93.3078 762.015 94.0933V95.1074C759.833 94.2654 758.286 92.1487 758.286 89.6705C758.286 86.4529 760.894 83.8446 764.112 83.8446C767.33 83.8446 769.938 86.4529 769.938 89.6705C769.938 92.1487 768.391 94.2655 766.209 95.1075V94.0933Z" fill="#3197D6"/>
<path d="M761.316 99.4579H767.141" stroke="#3197D6" stroke-width="0.932143"/>
<path d="M752.693 90.8356H755.49" stroke="#3197D6" stroke-width="0.932143"/>
<path d="M756.313 82.2856L758.216 84.2883" stroke="#3197D6" stroke-width="0.932143"/>
<path d="M763.413 81.9802V79.6498" stroke="#3197D6" stroke-width="0.932143"/>
<path d="M770.008 84.4219L771.911 82.4192" stroke="#3197D6" stroke-width="0.932143"/>
<path d="M772.734 90.8356H775.531" stroke="#3197D6" stroke-width="0.932143"/>
<path d="M627.33 31.7943C633.885 39.4188 640.341 50.4074 642.849 54.5875C641.395 55.3147 640.684 61.8674 640.291 65.4971L640.28 65.6004C633.993 59.4473 627.052 45.9508 624.488 39.82L619.137 33.6335C620.921 32.2402 625.056 29.9216 627.33 31.7943Z" fill="white" stroke="#3197D6" stroke-width="0.734194"/>
<path d="M718.714 79.6334L717.003 79.183L710.762 91.6643L718.043 93.9672C719.36 94.3837 720.805 94.1979 721.798 93.2382C727.95 87.2947 738.64 69.364 742.594 59.3773C742.776 58.9192 742.692 58.4074 742.389 58.0193L740.256 55.2944C739.974 54.9344 739.43 54.9333 739.147 55.292L737.057 57.9387C737.135 57.6676 737.187 57.1873 737.011 56.8104C736.826 56.4117 736.284 56.4244 735.956 56.7171C734.784 57.7625 733.761 60.4015 733 61.4663C732.457 62.2267 732.158 63.3147 732.022 64.0703C731.956 64.4393 731.808 64.7927 731.56 65.0738L718.714 79.6334Z" stroke="#3197D6" stroke-width="0.352758"/>
<path d="M718.838 79.5501L691.546 61.6792L662.787 60.0072C651.751 57.8335 646.361 54.9584 642.849 53.1191C641.177 55.1256 639.88 61.0104 639.545 65.8593C646.234 72.4137 655.708 75.5013 659.61 76.2259L659.603 76.2761C659.29 78.4657 659.981 80.6796 661.484 82.3025L663.288 84.2516C663.456 88.7104 663.89 98.4974 664.292 101.975C679.005 107.158 693.051 103.145 693.887 102.978C694.723 102.811 696.06 101.975 694.89 99.6343C691.011 91.3411 689.894 84.6048 689.838 82.4869C695.746 85.3851 708.887 91.6613 712.231 93.1327C713.568 91.6613 717.278 83.2843 718.838 79.5501Z" fill="#82D5F2"/>
<path d="M737.057 58.3202C736.819 58.9158 736.388 59.9295 736.046 60.5685C735.909 60.8248 735.933 61.4424 736.033 61.7153C736.412 62.7491 736.49 64.7848 736.352 65.199" stroke="#3197D6" stroke-width="0.352758"/>
<path d="M737.763 60.084L739.35 62.3769M737.939 60.4367L740.232 56.2036L737.939 60.4367ZM739.174 61.495L741.29 57.4383L739.174 61.495ZM740.232 62.2005L741.996 58.3202L740.232 62.2005Z" stroke="#3197D6" stroke-width="0.352758"/>
<path d="M663.207 60.4762C662.806 59.0049 664.377 56.5191 665.213 55.4602L669.725 55.9709L670.397 61.1451L666.551 61.6467C665.604 61.8696 663.608 61.9476 663.207 60.4762Z" fill="#18599A"/>
<path d="M668.892 56.1291C663.006 58.0017 663.876 49.218 665.046 44.592L667.522 41.2871L675.598 46.0594L679.426 60.4764C676.617 64.4892 673.016 65.8269 671.567 65.9941C671.288 64.6007 670.363 60.677 668.892 56.1291Z" fill="white" stroke="#3197D6" stroke-width="0.734194"/>
<path d="M667.387 51.9488C667.666 52.0603 668.39 52.0826 669.059 51.28" stroke="#3197D6" stroke-width="0.734194" stroke-linecap="round"/>
<path d="M666.885 48.9392C666.384 49.608 665.682 51.0125 666.885 51.2801" stroke="#3197D6" stroke-width="0.734194"/>
<path d="M664.879 50.1096C665.895 50.1096 666.718 49.2862 666.718 48.2704C666.718 47.2546 665.895 46.4312 664.879 46.4312C663.863 46.4312 663.04 47.2546 663.04 48.2704C663.04 49.2862 663.863 50.1096 664.879 50.1096Z" stroke="#3197D6" stroke-width="0.734194"/>
<path d="M669.561 50.1096C670.577 50.1096 671.4 49.2862 671.4 48.2704C671.4 47.2546 670.577 46.4312 669.561 46.4312C668.545 46.4312 667.722 47.2546 667.722 48.2704C667.722 49.2862 668.545 50.1096 669.561 50.1096Z" stroke="#3197D6" stroke-width="0.734194"/>
<path d="M666.718 47.7362H667.721" stroke="#3197D6" stroke-width="0.734194"/>
<path d="M671.34 47.7411L673.346 47.4066" stroke="#3197D6" stroke-width="0.734194"/>
<path d="M662.127 111.791C662.528 108.714 664.523 104.043 665.471 102.093C677.694 106.324 694.61 103.778 694.898 102.093C695.066 102.093 695.634 102.461 696.57 103.932C697.507 105.403 703.091 117.698 705.767 123.662H661.291C661.402 120.987 661.725 114.867 662.127 111.791Z" fill="#3197D6"/>
<path d="M671.734 39.7429C665.849 38.6728 663.774 43.5746 665.242 45.0429C665.632 44.4856 666.975 42.6412 668.179 42.1062C668.681 44.447 673.072 48.2703 673.574 47.7687C674.075 47.2671 674.911 47.2671 675.58 48.7719C676.115 49.9758 674.8 50.9456 674.075 51.28C676.822 52.6534 677.433 56.3486 678.835 59.0807C679.987 61.3249 681.45 63.2636 683.104 63.9874C685.244 64.9238 687.006 62.7055 687.619 61.4794C688.901 61.7023 691.832 61.5128 693.304 58.9713C693.437 54.1559 689.346 52.3947 687.284 52.116C686.058 52.2832 681.098 52.116 679.259 49.2735C677.252 44.9262 675.413 41.7494 673.574 40.579C674.911 40.7462 676.75 37.5693 674.744 36.3989C671.902 35.8973 671.734 36.3989 671.734 39.7429Z" fill="#18599A"/>
<path d="M614.611 40.2766L633.229 34.0707C633.999 33.8142 634.414 32.9826 634.158 32.2133L629.799 19.1343L627.54 12.3575C627.44 12.0593 627.248 11.8008 626.991 11.6202L620.23 6.8715C619.848 6.60386 619.363 6.53284 618.921 6.68009L614.272 8.22961L604.963 11.3326C604.194 11.589 603.778 12.4206 604.034 13.1899L612.753 39.3479C613.01 40.1172 613.841 40.533 614.611 40.2766Z" fill="#D5F7FC"/>
<path d="M626.446 31.956L628.944 33.6213L630.045 35.8239L626.683 37.5763C625.881 36.9075 626.014 34.8453 626.182 33.8978L625.471 33.0329C624.935 32.3806 625.743 31.4877 626.446 31.956Z" fill="#E0E5FF"/>
<path d="M626.683 37.5764C625.881 36.9076 626.014 34.8454 626.182 33.8979L625.317 32.8452C624.785 32.1978 625.578 31.308 626.282 31.7622L627.519 32.5603C628.239 33.0364 629.751 34.2088 630.045 35.0898" stroke="#3197D6" stroke-width="0.734194"/>
<path d="M616.553 16.6909L608.555 19.5718L609.013 21.2189L617.011 18.3381L616.553 16.6909Z" fill="#3197D6"/>
<path d="M626.768 17.8779L609.707 23.2794L610.229 24.9265L627.29 19.525L626.768 17.8779Z" fill="#3197D6"/>
<path d="M628.122 21.5488L611.061 26.9503L611.583 28.5974L628.644 23.1959L628.122 21.5488Z" fill="#3197D6"/>
<path d="M629.591 25.954L612.53 31.3556L613.051 33.0027L630.113 27.6011L629.591 25.954Z" fill="#3197D6"/>
<path d="M245.225 19.3242H141.833V101.626H245.225V19.3242Z" fill="#ADEBFA"/>
<path d="M241.881 22.6677H145.176V97.7684H241.881V22.6677Z" stroke="#3197D6" stroke-width="0.514389"/>
<path d="M232.364 31.6696H190.699V85.166H232.364V31.6696Z" fill="#82D5F2"/>
<path d="M193.271 85.4232V34.2415H229.793V85.4232" stroke="white" stroke-width="0.514389"/>
<path d="M185.041 85.166H228.764V91.8531H190.185C187.344 91.8531 185.041 89.5501 185.041 86.7092V85.166Z" fill="#FCFCFC"/>
<path d="M225.164 85.166H232.365V88.2523C232.365 90.241 230.753 91.8531 228.764 91.8531C226.776 91.8531 225.164 90.241 225.164 88.2523V85.166Z" fill="#ECECEC"/>
<path d="M225.164 61.504H197.387V62.5328H225.164V61.504Z" fill="white"/>
<path d="M225.164 65.1047H197.387V66.1335H225.164V65.1047Z" fill="white"/>
<path d="M225.164 68.7056H197.387V69.7344H225.164V68.7056Z" fill="white"/>
<path d="M225.164 72.3063H197.387V73.3351H225.164V72.3063Z" fill="white"/>
<path d="M225.164 75.907H197.387V76.9358H225.164V75.907Z" fill="white"/>
<path d="M225.164 79.5077H197.387V80.5365H225.164V79.5077Z" fill="white"/>
<path d="M213.075 35.2703C214.922 35.2703 216.419 33.7734 216.419 31.9268C216.419 30.0802 214.922 28.5833 213.075 28.5833C211.228 28.5833 209.731 30.0802 209.731 31.9268C209.731 33.7734 211.228 35.2703 213.075 35.2703Z" fill="white"/>
<path d="M179.383 39.3854H152.635V41.4429H179.383V39.3854Z" fill="#8F9FFF"/>
<path d="M179.383 52.2451H152.635V54.3027H179.383V52.2451Z" fill="#8F9FFF"/>
<path d="M179.383 66.6479H152.635V68.7055H179.383V66.6479Z" fill="#ADEBFA"/>
<path d="M179.383 81.0509H152.635V83.1085H179.383V81.0509Z" fill="#ADEBFA"/>
<path d="M141.833 19.1624H185.041V61.6156H141.833V19.1624Z" fill="#3197D6"/>
<path d="M180.926 9.66235H143.514L136.57 17.121V57.2433H180.926V9.66235Z" fill="white"/>
<path d="M160.57 20.6624H136.57V32.6624H160.57V20.6624Z" fill="#3197D6"/>
<path d="M173.57 37.6624H141.57V39.6624H173.57V37.6624Z" fill="#3197D6"/>
<path d="M173.57 43.6624H141.57V45.6624H173.57V43.6624Z" fill="#3197D6"/>
<path d="M173.57 49.6624H141.57V51.6624H173.57V49.6624Z" fill="#3197D6"/>
<path d="M310.692 70.6624H270.57V96.3818H310.692V70.6624Z" fill="#3197D6"/>
<path d="M308.635 72.2056H272.628V94.8387H308.635V72.2056Z" fill="#ADEBFA"/>
<path d="M296.032 75.5491H276.485V92.5239H296.032V75.5491Z" stroke="#3197D6" stroke-width="0.514389"/>
<path d="M299.89 81.9789V70.6624H305.291V82.4933L302.462 79.6642L299.89 81.9789Z" fill="#3197D6"/>
<path d="M244.57 88.1624H271.57" stroke="#3197D6"/>
<path d="M136.394 40.7896C117.586 72.5857 120.821 128.136 284.228 95.9693C422.468 48.9169 469.301 68.1656 540.961 75.0096C562.214 76.4354 604.091 77.4621 613.57 40.1624" stroke="#3197D6" stroke-width="0.430363" stroke-dasharray="3.44 3.44"/>
<path d="M258.152 105.409L255.57 97.6624L265.038 98.5231L258.152 105.409Z" fill="#3197D6"/>
<path d="M579.07 76.1624L571.57 73.7544L578.503 69.2506L579.07 76.1624Z" fill="#3197D6"/>
<path d="M935 27.2319H1070.14" stroke="#D5F7FC" stroke-width="0.860727" stroke-linecap="round"/>
<path d="M177.57 9.66235H169.57V29.6624H177.57V9.66235Z" fill="#3197D6"/>
<path d="M173.82 9.66235V29.6624" stroke="#BBC5FF" stroke-width="0.5"/>
<path d="M169.57 21.4124H177.57" stroke="#BBC5FF" stroke-width="0.5"/>
<path d="M169.57 24.4124H177.57" stroke="#BBC5FF" stroke-width="0.5"/>
<path d="M169.57 27.4124H177.57" stroke="#BBC5FF" stroke-width="0.5"/>
<path d="M840.57 69.6624H825.57V79.6624H840.57V69.6624Z" fill="#3197D6"/>
<path d="M833.57 79.6624C833.57 79.8636 833.57 81.5914 833.57 83.6621C833.57 86.9758 836.256 89.6624 839.57 89.6624H850.07" stroke="#3197D6"/>
<path d="M897.57 68.6624H850.57V107.662H897.57V68.6624Z" fill="white"/>
<path d="M892.57 74.6624H855.57V90.6624H892.57V74.6624Z" fill="#3197D6"/>
<path d="M885.07 78.6624C885.898 78.6624 886.57 77.9908 886.57 77.1624C886.57 76.3339 885.898 75.6624 885.07 75.6624C884.241 75.6624 883.57 76.3339 883.57 77.1624C883.57 77.9908 884.241 78.6624 885.07 78.6624Z" fill="#E1E8FE"/>
<path d="M866.818 76.6624L855.57 90.6624H892.57L884.275 82.1658L876.024 87.4762L866.818 76.6624Z" fill="#E1E8FE"/>
<path d="M892.57 93.6624H855.57V95.6624H892.57V93.6624Z" fill="#3197D6"/>
<path d="M892.57 98.6624H855.57V100.662H892.57V98.6624Z" fill="#3197D6"/>
<path d="M894.32 71.9124H853.82V105.412H894.32V71.9124Z" stroke="#3197D6" stroke-width="0.5"/>
<path d="M939.75 51.6624L930.57 123.983H934.19C935.85 123.983 938.64 113.691 938.91 114.526C939.14 115.193 941.05 119.254 941.97 121.201L941.57 123.662H977.47C964.95 110.589 961.45 90.8826 959.5 85.3195C957.72 82.4266 953.01 61.6761 950.88 51.6624L948.65 58.3382H942.53L940.86 51.6624H939.75Z" fill="white"/>
<path d="M942.53 65.5702C942.991 65.5702 943.364 65.1966 943.364 64.7357C943.364 64.2749 942.991 63.9012 942.53 63.9012C942.069 63.9012 941.695 64.2749 941.695 64.7357C941.695 65.1966 942.069 65.5702 942.53 65.5702Z" fill="#C4C4C4"/>
<path d="M949.76 65.5702C950.221 65.5702 950.594 65.1966 950.594 64.7357C950.594 64.2749 950.221 63.9012 949.76 63.9012C949.299 63.9012 948.925 64.2749 948.925 64.7357C948.925 65.1966 949.299 65.5702 949.76 65.5702Z" fill="#3197D6"/>
<path d="M947.82 68.3518H944.2L946.15 70.0207L947.82 68.3518Z" fill="#3197D6"/>
<path d="M954.95 99.9702C955.21 107.339 961.7 111.919 969.07 111.662L960.57 89.1624C957.29 91.7021 954.79 95.5042 954.95 99.9702Z" fill="#ADEBFA"/>
<path d="M940.03 51.6624L937.8 68.63C945.59 68.63 946.98 61.5834 946.7 58.06H942.25L941.14 51.6624H940.03Z" fill="#ADEBFA"/>
<path d="M942.4 65.3313C942.861 65.3313 943.234 64.9577 943.234 64.4968C943.234 64.036 942.861 63.6624 942.4 63.6624C941.939 63.6624 941.565 64.036 941.565 64.4968C941.565 64.9577 941.939 65.3313 942.4 65.3313Z" fill="#3197D6"/>
<path d="M960.05 80.5907H934.46L933.91 85.5975H961.45L960.05 80.5907Z" fill="#D5F7FC"/>
<path d="M951.155 79.4781H948.93V86.7102H951.155V79.4781Z" fill="#0F3F7C"/>
<path d="M970.19 77.2528C973.31 78.1429 977.05 83.1868 978.53 85.5975L973.81 88.9354C971.95 86.5247 968.19 81.4808 967.96 80.5907C967.69 79.4781 967.69 77.2528 970.19 77.2528Z" fill="#ADEBFA"/>
<path d="M970.07 115.36C980.75 107.572 976.56 93.757 973.13 87.8229C973.68 87.8229 975.46 87.3222 978.13 85.3195C987.93 102.899 979.25 115.453 973.68 119.532C973.31 119.162 972.07 117.808 970.07 115.36Z" fill="#ADEBFA"/>
<path d="M771.997 26.1975C771.746 24.6363 770.728 23.3249 767.712 22.1021C766.665 21.6207 765.497 21.276 765.149 20.4821C765.025 20.0201 765.009 19.7598 765.087 19.4802C765.311 18.5726 766.395 18.2896 767.253 18.5499C767.807 18.7352 768.33 19.1614 768.646 19.8413C770.123 18.885 770.12 18.8913 771.151 18.2341C770.773 17.6489 770.572 17.3788 770.325 17.1284C769.436 16.1363 768.226 15.6253 766.291 15.6644L765.282 15.7948C764.316 16.039 763.396 16.5461 762.856 17.2259C761.236 19.0641 761.698 22.2812 763.669 23.6051C765.611 25.0627 768.464 25.3943 768.828 26.7574C769.183 28.426 767.602 28.9662 766.031 28.7743C764.873 28.5335 764.229 27.9449 763.532 26.8746C762.251 27.6163 762.251 27.6163 760.933 28.3741C761.246 29.0573 761.574 29.3664 762.098 29.9583C764.577 32.4728 770.78 32.3492 771.893 28.5433C771.938 28.4126 772.237 27.5411 771.997 26.1975V26.1975ZM759.179 15.8659H755.979L755.965 24.1415C755.965 25.9014 756.056 27.5149 755.77 28.0094C755.302 28.9821 754.088 28.8615 753.535 28.6729C752.972 28.3962 752.686 28.0029 752.355 27.4468C752.264 27.2872 752.195 27.1636 752.172 27.154L749.57 28.7478C750.003 29.636 750.64 30.4069 751.457 30.9077C752.676 31.6398 754.316 31.8642 756.03 31.4706C757.146 31.1455 758.109 30.4722 758.613 29.4474C759.342 28.1037 759.186 26.4774 759.179 24.6786C759.196 21.744 759.179 18.8099 759.179 15.8659V15.8659Z" fill="#3197D6"/>
<path d="M492.086 59.0138C490.961 61.3138 488.991 62.8613 486.385 63.37C485.986 63.4679 485.575 63.5158 485.164 63.5125C483.664 63.5125 482.289 62.8875 481.621 61.8638C480.725 60.5 480.42 57.6088 483.375 55.47C483.435 55.7963 483.558 56.2438 483.639 56.5088C483.059 56.9397 482.584 57.4966 482.25 58.1375C481.7 59.2175 481.761 60.2963 482.413 61.2938C482.863 61.9663 483.575 62.375 484.491 62.5C485.636 62.6449 486.797 62.4262 487.81 61.875C489.399 61.04 490.458 60.0425 491.15 58.6788C490.954 58.4764 490.838 58.21 490.824 57.9288C490.813 57.627 490.923 57.3334 491.129 57.1124C491.335 56.8914 491.62 56.7611 491.921 56.75H491.964C492.257 56.7486 492.54 56.86 492.754 57.0612C492.968 57.2625 493.096 57.5381 493.112 57.8312C493.128 58.1242 493.031 58.4123 492.84 58.6356C492.65 58.859 492.381 59.0007 492.089 59.0313L492.086 59.0138ZM495.67 56.4888C497.196 58.2188 497.238 60.255 496.648 61.4363C496.098 62.515 494.648 63.595 492.698 63.595C491.787 63.5765 490.892 63.3611 490.073 62.9638C490.359 62.76 490.765 62.4338 490.989 62.23C491.621 62.5037 492.3 62.649 492.989 62.6575C494.251 62.6575 495.208 62.0675 495.778 60.9888C496.144 60.2763 496.165 59.4413 495.819 58.5863C495.394 57.5105 494.638 56.5978 493.66 55.98C492.377 55.1152 490.865 54.6542 489.318 54.6563H488.951C488.866 54.8536 488.727 55.023 488.55 55.1454C488.374 55.2678 488.166 55.3382 487.951 55.3488H487.913C487.616 55.3451 487.332 55.2258 487.121 55.0163C486.911 54.8067 486.79 54.5233 486.786 54.2264C486.781 53.9294 486.892 53.6422 487.095 53.4259C487.299 53.2095 487.578 53.0809 487.875 53.0675H487.916C488.123 53.0677 488.326 53.1248 488.502 53.2326C488.679 53.3405 488.822 53.4948 488.916 53.6788H489.243C491.843 53.6788 494.125 54.6763 495.67 56.4888V56.4888ZM485.326 59.3638C485.305 59.1562 485.355 58.9476 485.469 58.7725C484.329 56.7975 483.719 54.2938 484.655 51.6875C485.326 49.7288 487.016 48.405 488.849 48.405C490.804 48.405 492.84 50.1163 493.084 53.4138C492.779 53.3125 492.334 53.1638 492.066 53.1088C492 52.03 491.089 49.3425 488.93 49.3825C488.156 49.4038 487.016 49.77 486.43 50.5225C485.705 51.4208 485.283 52.5258 485.225 53.6788C485.088 55.2597 485.459 56.8433 486.284 58.1988C486.329 58.1821 486.378 58.1753 486.426 58.1788H486.466C486.769 58.1733 487.061 58.2882 487.279 58.4981C487.496 58.708 487.622 58.9958 487.627 59.2982C487.632 59.6005 487.518 59.8926 487.308 60.1103C487.098 60.328 486.81 60.4533 486.508 60.4588H486.466C486.171 60.4577 485.888 60.3429 485.676 60.1382C485.463 59.9335 485.338 59.6548 485.326 59.36V59.3638Z" fill="white"/>
<g clip-path="url(#clip0_48_739)">
<path d="M211.57 52.7999C212.751 52.7999 213.708 51.8429 213.708 50.6624C213.708 49.4819 212.751 48.5249 211.57 48.5249C210.39 48.5249 209.433 49.4819 209.433 50.6624C209.433 51.8429 210.39 52.7999 211.57 52.7999Z" fill="white"/>
<path d="M219.689 47.1374C219.276 46.9874 218.845 46.8374 218.395 46.7062C218.508 46.2562 218.601 45.8062 218.676 45.3749C219.07 42.8999 218.639 41.1562 217.439 40.4812C217.083 40.2749 216.689 40.1812 216.239 40.1812C214.926 40.1812 213.258 41.1562 211.57 42.7874C209.883 41.1562 208.214 40.1812 206.901 40.1812C206.451 40.1812 206.058 40.2749 205.701 40.4812C204.501 41.1749 204.07 42.9187 204.464 45.3749C204.539 45.8062 204.633 46.2562 204.745 46.7062C204.295 46.8374 203.864 46.9687 203.451 47.1374C201.108 48.0374 199.833 49.2749 199.833 50.6624C199.833 52.0499 201.126 53.2874 203.451 54.1874C203.864 54.3374 204.295 54.4874 204.745 54.6187C204.633 55.0687 204.539 55.5187 204.464 55.9499C204.07 58.4249 204.501 60.1687 205.701 60.8437C206.058 61.0499 206.451 61.1437 206.901 61.1437C208.233 61.1437 209.901 60.1687 211.57 58.5374C213.258 60.1687 214.926 61.1437 216.239 61.1437C216.689 61.1437 217.083 61.0499 217.439 60.8437C218.639 60.1499 219.07 58.4062 218.676 55.9499C218.601 55.5187 218.508 55.0687 218.395 54.6187C218.845 54.4874 219.276 54.3562 219.689 54.1874C222.033 53.2874 223.308 52.0499 223.308 50.6624C223.308 49.2749 222.033 48.0374 219.689 47.1374V47.1374ZM216.914 41.4187C217.683 41.8687 217.945 43.2562 217.626 45.2249C217.57 45.6187 217.476 46.0312 217.364 46.4624C216.389 46.2374 215.358 46.0874 214.27 45.9937C213.633 45.0937 212.976 44.2874 212.32 43.5562C213.708 42.1874 215.114 41.2499 216.258 41.2499C216.501 41.2499 216.726 41.3062 216.914 41.4187V41.4187ZM214.814 52.5374C214.476 53.1374 214.083 53.7374 213.67 54.3374C212.976 54.3937 212.283 54.4124 211.57 54.4124C210.839 54.4124 210.145 54.3937 209.47 54.3374C209.058 53.7374 208.683 53.1374 208.345 52.5374C207.989 51.9187 207.651 51.2812 207.351 50.6624C207.651 50.0437 207.989 49.4062 208.345 48.7874C208.683 48.1874 209.076 47.5874 209.489 46.9874C210.183 46.9312 210.876 46.9124 211.589 46.9124C212.32 46.9124 213.014 46.9312 213.689 46.9874C214.101 47.5874 214.476 48.1874 214.814 48.7874C215.17 49.4062 215.508 50.0437 215.808 50.6624C215.489 51.2812 215.17 51.8999 214.814 52.5374ZM216.37 51.9187C216.651 52.5749 216.876 53.2124 217.083 53.8499C216.445 53.9999 215.77 54.1124 215.058 54.2062C215.283 53.8499 215.526 53.4749 215.733 53.0812C215.958 52.6874 216.164 52.2937 216.37 51.9187ZM211.57 56.9999C211.12 56.5124 210.689 55.9874 210.276 55.4437C210.708 55.4624 211.139 55.4812 211.57 55.4812C212.001 55.4812 212.433 55.4624 212.864 55.4437C212.451 55.9874 212.02 56.5124 211.57 56.9999ZM208.083 54.1874C207.37 54.0937 206.695 53.9812 206.058 53.8312C206.264 53.2124 206.489 52.5562 206.77 51.8999C206.976 52.2749 207.183 52.6687 207.408 53.0437C207.633 53.4562 207.858 53.8124 208.083 54.1874V54.1874ZM206.77 49.4062C206.489 48.7499 206.264 48.1124 206.058 47.4749C206.695 47.3249 207.37 47.2124 208.083 47.1187C207.858 47.4749 207.614 47.8499 207.408 48.2437C207.183 48.6374 206.976 49.0312 206.77 49.4062V49.4062ZM211.57 44.3249C212.02 44.8124 212.451 45.3374 212.864 45.8812C212.433 45.8624 212.001 45.8437 211.57 45.8437C211.139 45.8437 210.708 45.8624 210.276 45.8812C210.689 45.3374 211.12 44.8124 211.57 44.3249ZM215.733 48.2624L215.058 47.1374C215.77 47.2312 216.445 47.3437 217.083 47.4937C216.876 48.1124 216.651 48.7687 216.37 49.4249C216.164 49.0312 215.958 48.6374 215.733 48.2624ZM205.514 45.2249C205.195 43.2562 205.458 41.8687 206.226 41.4187C206.414 41.3062 206.639 41.2499 206.883 41.2499C208.008 41.2499 209.414 42.1687 210.82 43.5562C210.164 44.2687 209.508 45.0937 208.87 45.9937C207.783 46.0874 206.751 46.2562 205.776 46.4624C205.664 46.0312 205.589 45.6187 205.514 45.2249V45.2249ZM200.883 50.6624C200.883 49.7812 201.951 48.8437 203.826 48.1499C204.201 47.9999 204.614 47.8687 205.026 47.7562C205.326 48.6937 205.701 49.6874 206.151 50.6812C205.701 51.6749 205.308 52.6499 205.026 53.5874C202.439 52.8374 200.883 51.7124 200.883 50.6624ZM206.226 59.9062C205.458 59.4562 205.195 58.0687 205.514 56.0999C205.57 55.7062 205.664 55.2937 205.776 54.8624C206.751 55.0874 207.783 55.2374 208.87 55.3312C209.508 56.2312 210.164 57.0374 210.82 57.7687C209.433 59.1374 208.026 60.0749 206.883 60.0749C206.639 60.0749 206.414 60.0187 206.226 59.9062ZM217.626 56.0999C217.945 58.0687 217.683 59.4562 216.914 59.9062C216.726 60.0187 216.501 60.0749 216.258 60.0749C215.133 60.0749 213.726 59.1562 212.32 57.7687C212.976 57.0562 213.633 56.2312 214.27 55.3312C215.358 55.2374 216.389 55.0687 217.364 54.8624C217.476 55.2937 217.551 55.7062 217.626 56.0999V56.0999ZM219.314 53.1749C218.939 53.3249 218.526 53.4562 218.114 53.5687C217.814 52.6312 217.439 51.6374 216.989 50.6437C217.439 49.6499 217.833 48.6749 218.114 47.7374C220.701 48.4874 222.258 49.6124 222.258 50.6624C222.258 51.5437 221.17 52.4812 219.314 53.1749Z" fill="white"/>
</g>
<path fill-rule="evenodd" clip-rule="evenodd" d="M155.152 88.0195C155.152 88.1074 155.178 88.1654 155.193 88.2217C155.287 88.5884 155.49 88.903 155.731 89.19C156.075 89.599 156.495 89.9282 156.926 90.2379C157.299 90.5064 157.68 90.7689 158.055 91.0354C158.12 91.0811 158.18 91.1337 158.25 91.1899C158.19 91.2224 158.14 91.251 158.088 91.2774C157.593 91.5284 157.117 91.8098 156.678 92.1506C156.414 92.3561 156.158 92.5745 155.977 92.8599C155.687 93.3189 155.584 93.8079 155.801 94.33C155.864 94.4825 155.96 94.6143 156.096 94.7116C156.141 94.7431 156.19 94.7744 156.242 94.7866C156.374 94.8177 156.509 94.8381 156.643 94.8628L157.022 94.8625C157.441 94.8251 157.823 94.6815 158.167 94.4435C158.706 94.0715 159.07 93.5727 159.226 92.9326C159.339 92.4674 159.344 92.0016 159.21 91.5385C159.197 91.4956 159.183 91.4533 159.166 91.4117C159.15 91.3701 159.13 91.3296 159.108 91.2778L159.967 90.7835L159.98 90.7945C159.965 90.8456 159.948 90.8966 159.934 90.9482C159.832 91.3212 159.764 91.7008 159.788 92.0879C159.814 92.5004 159.929 92.8865 160.171 93.2311C160.366 93.5099 160.831 93.5203 161.039 93.2405C161.113 93.1411 161.184 93.0373 161.238 92.9264C161.378 92.637 161.507 92.3425 161.641 92.05L161.665 91.9965C161.655 92.135 161.644 92.2566 161.639 92.3784C161.631 92.5685 161.642 92.7575 161.707 92.9384C161.762 93.0931 161.857 93.2088 162.034 93.2291C162.156 93.243 162.252 93.1875 162.341 93.1171C162.479 93.008 162.594 92.872 162.678 92.7172C162.915 92.2809 163.159 91.8471 163.375 91.3997C163.608 90.9159 163.811 90.4179 164.028 89.9257L164.064 89.8385C164.115 90.0394 164.15 90.2361 164.216 90.4224C164.292 90.6385 164.387 90.8495 164.489 91.0546C164.538 91.1515 164.532 91.2144 164.465 91.2956C164.183 91.6356 163.906 91.9797 163.628 92.3235C163.567 92.3994 163.506 92.4766 163.455 92.5595C163.424 92.6118 163.403 92.6698 163.395 92.73C163.386 92.7854 163.399 92.8421 163.432 92.888C163.464 92.9339 163.513 92.9656 163.568 92.9764C163.679 93.0003 163.793 93.0084 163.906 93.0005C164.293 92.972 164.645 92.8361 164.956 92.6059C165.358 92.3076 165.487 91.9006 165.39 91.4183C165.364 91.2874 165.317 91.1601 165.272 91.034C165.251 90.9771 165.25 90.9372 165.287 90.8842C165.609 90.4246 165.884 89.937 166.14 89.4381C166.15 89.4185 166.16 89.3989 166.178 89.3779C166.261 89.8091 166.385 90.2248 166.609 90.6019C166.495 90.7118 166.382 90.8114 166.28 90.9211C166.055 91.1629 165.86 91.4254 165.758 91.7455C165.715 91.8835 165.681 92.0238 165.7 92.1711C165.731 92.4 165.918 92.5487 166.143 92.4966C166.625 92.3851 167.041 92.1581 167.345 91.756C167.549 91.4852 167.568 91.1832 167.482 90.8669C167.459 90.7809 167.431 90.6962 167.401 90.5976C167.52 90.5607 167.636 90.5165 167.756 90.4891C168.378 90.3471 168.994 90.3719 169.593 90.5966C169.943 90.7279 170.226 90.9475 170.394 91.293C170.599 91.7154 170.486 92.1161 170.088 92.3831C170.05 92.408 170.008 92.4276 169.977 92.4587C169.967 92.4702 169.96 92.4835 169.956 92.4979C169.951 92.5123 169.95 92.5275 169.952 92.5425C169.954 92.5579 169.995 92.5771 170.018 92.5769C170.149 92.5759 170.255 92.5073 170.357 92.4368C170.612 92.2601 170.799 92.0225 170.839 91.7096L170.847 91.6861L170.837 91.4824C170.833 91.4706 170.84 91.459 170.839 91.4501C170.785 90.9945 170.541 90.6411 170.187 90.3641C169.777 90.0435 169.293 89.9115 168.781 89.8906C168.366 89.8728 167.951 89.9366 167.561 90.0785C167.448 90.1191 167.337 90.1672 167.225 90.2126C167.209 90.1852 167.193 90.159 167.18 90.1319C167.064 89.8949 166.924 89.6684 166.893 89.3966C166.871 89.2036 166.844 89.0109 166.89 88.82C166.934 88.6364 166.991 88.4559 167.045 88.2748C167.073 88.1815 167.054 88.1293 166.965 88.0873C166.934 88.0718 166.901 88.0609 166.866 88.055C166.648 88.0232 166.432 88.0414 166.22 88.103C166.145 88.1249 166.091 88.1669 166.074 88.2499C166.064 88.2975 166.045 88.3431 166.032 88.3901C165.976 88.5855 165.937 88.7846 165.847 88.9707C165.623 89.4376 165.367 89.8869 165.105 90.3329C165.077 90.381 165.047 90.4282 165.011 90.4866C164.919 90.2941 164.821 90.1214 164.791 89.9189C164.758 89.6899 164.731 89.4613 164.788 89.234C164.831 89.0645 164.886 88.8981 164.937 88.7309C164.961 88.6514 164.95 88.6096 164.878 88.5677C164.842 88.5466 164.8 88.5279 164.759 88.5217C164.535 88.4876 164.306 88.5063 164.09 88.5765C164.022 88.5985 163.987 88.6424 163.966 88.7124C163.905 88.9189 163.853 89.1304 163.767 89.3267C163.421 90.1217 163.064 90.9126 162.707 91.7034C162.633 91.8685 162.546 92.0279 162.462 92.1886C162.441 92.2294 162.41 92.2653 162.383 92.3035C162.362 92.2784 162.354 92.2611 162.354 92.2439C162.355 92.1422 162.342 92.0376 162.362 91.9394C162.421 91.6422 162.487 91.3464 162.559 91.052C162.618 90.8088 162.686 90.5678 162.751 90.3261C162.773 90.2453 162.774 90.1696 162.715 90.1016C162.618 89.9878 162.414 89.9627 162.293 90.0505L162.239 90.0808L162.25 89.9945C162.275 89.8096 162.28 89.6254 162.23 89.4432C162.166 89.2162 162.004 89.0856 161.769 89.0929C161.659 89.0962 161.544 89.115 161.442 89.155C161.015 89.3225 160.686 89.6191 160.406 89.976C160.381 90.0091 160.348 90.0369 160.312 90.0577C159.95 90.2582 159.587 90.4562 159.225 90.655L158.821 90.8761C158.713 90.7729 158.615 90.6657 158.503 90.5749C158.162 90.2969 157.816 90.0258 157.472 89.7509C157.168 89.5073 156.873 89.2535 156.648 88.9309C156.48 88.6909 156.372 88.4282 156.362 88.1315C156.349 87.7534 156.456 87.4079 156.648 87.0862C156.895 86.6747 157.23 86.3445 157.6 86.0454C157.99 85.7291 158.413 85.4606 158.851 85.2155C159.463 84.8726 160.093 84.5691 160.769 84.3688C161.462 84.1633 162.165 84.0456 162.89 84.1276C163.175 84.1599 163.451 84.2251 163.706 84.3645C163.9 84.4711 164.06 84.6107 164.134 84.829C164.207 85.0438 164.205 85.2614 164.154 85.4795C164.051 85.9212 163.809 86.2854 163.505 86.6108C163.006 87.1441 162.397 87.5073 161.711 87.7471C161.317 87.8852 160.907 87.9727 160.49 88.0075C160.149 88.0361 159.815 88.0059 159.492 87.8872C159.278 87.8086 159.092 87.6884 158.942 87.5139C158.916 87.4826 158.881 87.4488 158.832 87.478C158.783 87.5068 158.774 87.5533 158.79 87.6004C158.818 87.6786 158.843 87.7601 158.886 87.8301C158.993 88.0057 159.149 88.1331 159.321 88.2424C159.651 88.4525 160.021 88.5231 160.404 88.5395C160.985 88.5646 161.551 88.4779 162.11 88.322C162.908 88.0995 163.602 87.7065 164.158 87.0865C164.622 86.5703 164.952 85.9876 165.023 85.2841C165.058 84.9407 165.021 84.6044 164.86 84.2911C164.686 83.9518 164.409 83.6994 164.077 83.5255C163.594 83.2724 163.073 83.125 162.536 83.125H161.997C161.346 83.125 160.716 83.3116 160.104 83.5343C159.641 83.7029 159.187 83.9019 158.746 84.1221C157.785 84.602 156.891 85.1806 156.156 85.9763C155.79 86.3726 155.48 86.81 155.302 87.325C155.248 87.4788 155.202 87.635 155.163 87.7933L155.152 88.0195ZM158.643 92.2949C158.601 92.8523 158.349 93.3041 157.936 93.6701C157.704 93.8759 157.437 94.0224 157.127 94.0739C157.015 94.0925 156.899 94.097 156.79 94.0504C156.635 93.9839 156.6 93.8457 156.597 93.6986C156.592 93.4641 156.674 93.2521 156.787 93.0504C156.934 92.7874 157.149 92.5869 157.38 92.3996C157.742 92.1045 158.135 91.8548 158.538 91.619L158.568 91.6065C158.631 91.8365 158.66 92.0636 158.643 92.2949V92.2949ZM161.788 89.8725C161.758 90.0505 161.722 90.2286 161.67 90.4011C161.49 90.9982 161.259 91.5769 161.009 92.1477C160.963 92.2534 160.896 92.3497 160.838 92.4499C160.828 92.4653 160.816 92.4793 160.802 92.4916C160.73 92.563 160.662 92.5592 160.625 92.4659C160.583 92.3574 160.557 92.2413 160.534 92.1264C160.519 92.0493 160.523 91.9682 160.518 91.8892C160.523 91.3275 160.694 90.817 160.985 90.3418C161.105 90.1458 161.235 89.959 161.435 89.835C161.497 89.7964 161.564 89.7667 161.634 89.7467C161.74 89.7169 161.805 89.766 161.788 89.8725V89.8725ZM163.933 92.606L164.704 91.7056C164.737 92.04 164.168 92.7075 163.933 92.606ZM166.396 92.0001C166.342 92.0314 166.282 92.0539 166.226 92.0828C166.175 92.1093 166.158 92.0825 166.157 92.0385C166.156 92.008 166.16 91.9776 166.169 91.9484C166.273 91.5811 166.464 91.2676 166.749 91.0126L166.769 91.0024C166.905 91.3817 166.748 91.7984 166.396 92.0001Z" fill="#2376B8"/>
<path d="M671.698 91.7599L673.701 78.9274C673.77 78.4905 674.357 78.3855 674.563 78.7774L676.716 82.8049L671.698 91.7599V91.7599ZM685.937 94.878L684.026 83.058C683.968 82.6905 683.509 82.5405 683.244 82.8049L671.203 94.878L677.867 98.6186C678.073 98.7321 678.305 98.7916 678.54 98.7916C678.775 98.7916 679.007 98.7321 679.213 98.6186L685.937 94.878V94.878ZM680.528 84.5655L678.984 81.6311C678.812 81.2974 678.339 81.2974 678.167 81.6311L671.389 93.7155L680.528 84.5655V84.5655Z" fill="white"/>
<g clip-path="url(#clip1_48_739)">
<path d="M459.922 88.9277L458.665 74.8313H472.475L471.217 88.9255L465.562 90.4934L459.922 88.9277V88.9277Z" fill="#61BBE6"/>
<path d="M465.57 89.2951L470.14 88.0281L471.215 75.9839H465.57V89.2951Z" fill="#61BBE6"/>
<path d="M465.57 81.0909H467.858L468.016 79.3205H465.57V77.5917H469.905L469.864 78.0555L469.439 82.8198H465.57V81.0909Z" fill="#3197D6"/>
<path d="M465.58 85.5809L465.573 85.5832L463.647 85.0633L463.524 83.6844H461.789L462.031 86.3991L465.573 87.3819L465.58 87.3797V85.5809V85.5809Z" fill="#EBEBEB"/>
<path d="M467.711 82.7467L467.502 85.062L465.574 85.5825V87.3812L469.118 86.399L469.144 86.1068L469.445 82.7467H467.711Z" fill="#3197D6"/>
<path d="M465.576 77.5917V79.3205H461.4L461.365 78.932L461.286 78.0555L461.245 77.5917H465.576V77.5917ZM465.57 81.0912V82.8201H463.669L463.634 82.4316L463.555 81.555L463.514 81.0912H465.57V81.0912Z" fill="#EBEBEB"/>
</g>
<g clip-path="url(#clip2_48_739)">
<path d="M280.949 90.8969L279.699 76.87H293.441L292.189 90.8947L286.561 92.4547L280.949 90.8969Z" fill="#82D5F2"/>
<path d="M286.57 91.2623L291.117 90.0016L292.187 78.0168H286.57V91.2623Z" fill="#82D5F2"/>
<path d="M286.57 83.2192H284.293L284.136 81.4574H286.57V79.7372H282.256L282.297 80.1987L282.72 84.9396H286.57V83.2192ZM286.57 87.6871L286.562 87.6892L284.646 87.1717L284.524 85.7998H282.797L283.038 88.5009L286.562 89.4792L286.57 89.4771V87.6871Z" fill="#EBEBEB"/>
<path d="M286.564 83.2192V84.9396H288.682L288.483 87.1707L286.564 87.6886V89.4784L290.091 88.5009L290.117 88.2103L290.521 83.6812L290.563 83.2192H290.099H286.564ZM286.564 79.7372V81.4574H290.719L290.754 81.0709L290.832 80.1987L290.874 79.7372H286.564Z" fill="#3197D6"/>
</g>
<g clip-path="url(#clip3_48_739)">
<path fill-rule="evenodd" clip-rule="evenodd" d="M398.077 44.6896C398.378 45.5601 398.595 46.4489 398.666 47.3701C398.754 48.5129 398.714 49.6476 398.473 50.7717C398.466 50.8026 398.452 50.8317 398.442 50.8617C398.367 50.8619 398.29 50.8525 398.216 50.8639C397.591 50.962 396.968 51.0636 396.344 51.1647C395.7 51.2691 395.054 51.3694 394.411 51.481C394.183 51.5204 393.9 51.4733 393.808 51.7887C393.806 51.7973 393.779 51.7988 393.764 51.8037L393.795 49.9191L393.764 45.3719L394.064 45.3203C394.555 45.2399 395.047 45.1583 395.538 45.0801C396.125 44.987 396.712 44.8964 397.299 44.8055C397.558 44.7651 397.817 44.7282 398.077 44.6896V44.6896Z" fill="#61BBE6"/>
<path fill-rule="evenodd" clip-rule="evenodd" d="M393.144 57.2974C392.827 57.025 392.499 56.7646 392.195 56.4781C390.561 54.9364 389.365 53.122 388.777 50.9344C388.614 50.3324 388.506 49.7206 388.472 49.0984C388.447 48.6631 388.412 48.2237 388.443 47.7906C388.525 46.6386 388.691 45.4977 389.029 44.3881L389.048 44.3622C389.08 44.4059 389.128 44.4445 389.144 44.4938C389.474 45.4651 389.801 46.4371 390.127 47.4096C391.151 50.4659 392.173 53.5229 393.198 56.5784C393.218 56.638 393.27 56.6869 393.307 56.7407L393.144 57.2974V57.2974Z" fill="#61BBE6"/>
<path fill-rule="evenodd" clip-rule="evenodd" d="M398.077 44.6896C397.817 44.7282 397.558 44.7652 397.299 44.8051C396.712 44.896 396.125 44.9866 395.538 45.0798C395.046 45.158 394.555 45.2395 394.064 45.32L393.763 45.3715L393.761 45.1756C393.751 45.0145 393.734 44.8537 393.732 44.6926C393.719 43.6655 393.711 42.6384 393.698 41.6112C393.691 40.9683 393.679 40.3255 393.666 39.6828C393.658 39.2834 393.649 38.8839 393.631 38.485C393.621 38.2707 393.587 38.0575 393.573 37.8432C393.565 37.72 393.576 37.5959 393.578 37.4722C393.731 37.769 393.881 38.068 394.039 38.3626C394.287 38.8284 394.684 39.1715 395.041 39.5459C396.451 41.0257 397.453 42.7462 398.077 44.6896V44.6896Z" fill="#61BBE6"/>
<path fill-rule="evenodd" clip-rule="evenodd" d="M393.764 51.8036C393.779 51.7987 393.806 51.7972 393.808 51.7886C393.9 51.4732 394.182 51.5202 394.41 51.4809C395.054 51.3695 395.699 51.269 396.344 51.1646C396.968 51.0635 397.591 50.9619 398.216 50.8638C398.289 50.8522 398.366 50.8617 398.442 50.8616C398.325 51.2778 398.234 51.7031 398.086 52.1079C397.918 52.5671 397.714 53.0152 397.499 53.4545C397.175 54.1097 396.776 54.7242 396.307 55.2851C395.948 55.7178 395.546 56.1177 395.144 56.5128C394.922 56.7312 394.66 56.9092 394.417 57.1055L394.353 57.0624L394.126 56.8677L393.89 56.3516C393.729 55.7494 393.642 55.1301 393.629 54.5069L393.633 54.4017L393.665 53.9469C393.676 53.7916 393.69 53.6366 393.697 53.4809C393.721 52.9218 393.742 52.3627 393.764 51.8036V51.8036Z" fill="#61BBE6"/>
<path fill-rule="evenodd" clip-rule="evenodd" d="M393.764 51.8035C393.742 52.3627 393.721 52.9218 393.697 53.4811C393.691 53.6367 393.676 53.7918 393.666 53.947L393.522 54.0012C393.204 53.0633 392.885 52.1354 392.573 51.205C392.057 49.6658 391.548 48.1242 391.033 46.5847C390.617 45.342 390.198 44.1003 389.777 42.8596C389.757 42.8015 389.701 42.7561 389.661 42.7047L390.579 41.0168C390.611 41.0716 390.652 41.1228 390.672 41.1817C391.097 42.4383 391.52 43.6957 391.941 44.9538C392.488 46.5907 393.031 48.2288 393.578 49.8659C393.599 49.9313 393.635 49.9917 393.67 50.065L393.795 49.9188L393.764 51.8035V51.8035Z" fill="#61BBE6"/>
<path fill-rule="evenodd" clip-rule="evenodd" d="M389.661 42.705C389.701 42.7563 389.757 42.8017 389.777 42.8598C390.199 44.1005 390.617 45.3422 391.033 46.5849C391.548 48.1245 392.058 49.6661 392.573 51.2053C392.885 52.1355 393.204 53.0636 393.522 54.0015L393.666 53.9473L393.634 54.4021L393.605 54.507C393.555 55.005 393.513 55.5041 393.452 56.001C393.421 56.25 393.357 56.4945 393.307 56.741C393.27 56.6872 393.218 56.6383 393.198 56.5786C392.173 53.523 391.151 50.4661 390.127 47.4099C389.802 46.4373 389.474 45.4653 389.145 44.4941C389.128 44.4448 389.081 44.4061 389.048 44.3625L389.661 42.705V42.705Z" fill="#61BBE6"/>
<path fill-rule="evenodd" clip-rule="evenodd" d="M393.795 49.9189L393.67 50.0652C393.635 49.9919 393.599 49.9313 393.578 49.8661C393.031 48.229 392.488 46.5908 391.941 44.9539C391.52 43.6958 391.097 42.4385 390.672 41.1818C390.652 41.1229 390.611 41.0716 390.579 41.017L391.714 39.5236C391.75 39.5714 391.801 39.6139 391.82 39.6677C392.135 40.5904 392.447 41.5142 392.758 42.4386C393.048 43.3019 393.334 44.1664 393.627 45.0286C393.647 45.0863 393.715 45.1272 393.761 45.1759L393.763 45.3719C393.774 46.8872 393.785 48.4032 393.795 49.9189V49.9189Z" fill="#61BBE6"/>
<path fill-rule="evenodd" clip-rule="evenodd" d="M393.761 45.1756C393.716 45.1268 393.647 45.0859 393.628 45.0282C393.334 44.1661 393.048 43.3015 392.758 42.4382C392.448 41.5139 392.135 40.5902 391.82 39.6674C391.802 39.6136 391.751 39.571 391.715 39.5232C392.084 39.1617 392.442 38.7872 392.826 38.4424C393.167 38.1361 393.442 37.8076 393.454 37.3234C393.455 37.3034 393.465 37.2833 393.481 37.2271L393.579 37.4719C393.576 37.5959 393.565 37.7198 393.573 37.843C393.587 38.0573 393.622 38.2705 393.632 38.4848C393.65 38.8836 393.658 39.2832 393.666 39.6826C393.679 40.3253 393.691 40.9681 393.699 41.611C393.712 42.6381 393.72 43.6652 393.733 44.6924C393.734 44.8538 393.751 45.0145 393.761 45.1756V45.1756Z" fill="#61BBE6"/>
<path fill-rule="evenodd" clip-rule="evenodd" d="M393.307 56.7408C393.356 56.4943 393.421 56.2496 393.452 56.0008C393.513 55.5041 393.555 55.0048 393.605 54.5068L393.617 54.5049L393.629 54.5069C393.642 55.1301 393.73 55.7494 393.891 56.3516C393.858 56.3951 393.811 56.4339 393.794 56.483C393.657 56.8674 393.529 57.2548 393.392 57.6391C393.373 57.6916 393.321 57.7325 393.284 57.7786L393.144 57.2975L393.307 56.7408V56.7408Z" fill="#A9AA88"/>
<path fill-rule="evenodd" clip-rule="evenodd" d="M393.284 57.7787C393.321 57.7326 393.373 57.6917 393.392 57.6392C393.529 57.2549 393.657 56.8677 393.794 56.4831C393.811 56.434 393.858 56.3952 393.891 56.3517L394.126 56.8681C394.08 56.9341 394.015 56.9935 393.99 57.067L393.539 58.3906C393.52 58.4436 393.457 58.4811 393.414 58.5259L393.284 57.7787V57.7787Z" fill="#B6B598"/>
<path fill-rule="evenodd" clip-rule="evenodd" d="M393.415 58.5258C393.457 58.4812 393.52 58.4435 393.539 58.3904L393.99 57.0669C394.015 56.9935 394.08 56.9339 394.126 56.8679L394.354 57.0624C394.244 57.1711 394.183 57.2967 394.219 57.4555L394.15 57.682C394.119 57.7209 394.073 57.7546 394.058 57.799C393.9 58.2496 393.75 58.7026 393.592 59.1532C393.572 59.2104 393.516 59.2552 393.477 59.3054C393.456 59.0454 393.435 58.7859 393.415 58.5258V58.5258Z" fill="#C2C1A7"/>
<path fill-rule="evenodd" clip-rule="evenodd" d="M393.477 59.3054C393.516 59.2549 393.572 59.2101 393.592 59.1531C393.75 58.7028 393.901 58.2498 394.058 57.799C394.073 57.7548 394.119 57.7208 394.151 57.682L394.055 58.7217C394.03 58.7511 393.993 58.7768 393.98 58.8111C393.873 59.1138 393.771 59.4186 393.663 59.7213C393.641 59.7837 393.598 59.8388 393.564 59.8971C393.535 59.8583 393.482 59.8208 393.479 59.7803C393.47 59.6226 393.476 59.4638 393.477 59.3054V59.3054Z" fill="#CECDB7"/>
<path fill-rule="evenodd" clip-rule="evenodd" d="M393.564 59.8971C393.597 59.8386 393.64 59.7835 393.662 59.7212C393.771 59.4188 393.872 59.1139 393.98 58.8111C393.992 58.7768 394.029 58.7513 394.055 58.7217L394.057 59.4042L393.829 59.9899L393.564 59.8971V59.8971Z" fill="#DBDAC7"/>
<path fill-rule="evenodd" clip-rule="evenodd" d="M393.829 59.9902L394.057 59.4044L394.104 60.0974L393.829 59.9902V59.9902Z" fill="#EBE9DC"/>
<path fill-rule="evenodd" clip-rule="evenodd" d="M394.219 57.4557C394.182 57.2969 394.243 57.1711 394.354 57.0625L394.417 57.1056L394.219 57.4557V57.4557Z" fill="#CECDB7"/>
<path fill-rule="evenodd" clip-rule="evenodd" d="M393.629 54.5071L393.617 54.505L393.604 54.5069L393.634 54.4021L393.629 54.5071V54.5071Z" fill="#61BBE6"/>
</g>
<g clip-path="url(#clip4_48_739)">
<path d="M378.82 52.3999C378.82 51.5749 378.157 50.9124 377.332 50.9124H367.807C366.982 50.9124 366.32 51.5749 366.32 52.3999V64.9374C366.32 65.7624 366.982 66.4249 367.807 66.4249H377.345C378.17 66.4249 378.832 65.7624 378.832 64.9374V52.3999H378.82ZM378.32 52.4124V64.8249C378.32 65.4124 377.882 65.9124 377.295 65.9124H367.882C367.295 65.9124 366.82 65.4124 366.82 64.8249V52.4124C366.82 51.8249 367.307 51.4124 367.882 51.4124H377.282C377.87 51.4124 378.332 51.8624 378.332 52.4499L378.32 52.4124V52.4124ZM369.195 64.2499L370.957 62.4874L369.195 60.7249V64.2499ZM370.945 56.6374V52.9624L369.207 52.9749C369.207 52.9749 369.22 58.7124 369.232 58.6874C374.582 56.5999 374.195 58.0874 374.195 58.0874V64.2624L374.182 64.2874H375.82V58.0999C375.82 54.7124 370.945 56.6374 370.945 56.6374V56.6374ZM373.32 55.1624H375.17C376.17 53.9124 376.507 53.0374 376.507 53.0374H374.595C374.595 53.0374 373.982 54.4124 373.32 55.1624Z" fill="#3197D6"/>
</g>
<path d="M390.268 80.9497L383.282 73.9641C382.88 73.5618 382.228 73.5618 381.825 73.9641L380.375 75.4148L382.215 77.255C382.642 77.1106 383.133 77.2075 383.474 77.5483C383.816 77.8913 383.912 78.3857 383.764 78.8149L385.538 80.5885C385.967 80.4406 386.462 80.5361 386.805 80.8794C387.284 81.3581 387.284 82.1342 386.805 82.6132C386.691 82.7271 386.555 82.8174 386.407 82.8791C386.258 82.9407 386.098 82.9725 385.937 82.9725C385.776 82.9725 385.617 82.9407 385.468 82.8791C385.319 82.8174 385.184 82.7271 385.07 82.6132C384.899 82.442 384.783 82.224 384.735 81.9868C384.688 81.7495 384.711 81.5034 384.803 81.2796L383.15 79.6258L383.149 83.9785C383.269 84.0376 383.379 84.1158 383.474 84.2102C383.953 84.6889 383.953 85.4648 383.474 85.9445C382.995 86.4232 382.218 86.4232 381.74 85.9445C381.261 85.4649 381.261 84.6891 381.74 84.2102C381.855 84.0953 381.991 84.0044 382.141 83.9428V79.5498C381.991 79.4883 381.854 79.3973 381.74 79.2822C381.377 78.9197 381.29 78.3874 381.476 77.9417L379.662 76.1276L374.872 80.9174C374.678 81.1107 374.57 81.3729 374.57 81.6462C374.57 81.9195 374.678 82.1817 374.872 82.375L381.858 89.3606C382.26 89.7629 382.912 89.7629 383.315 89.3606L390.268 82.4074C390.462 82.2141 390.57 81.9519 390.57 81.6786C390.57 81.4052 390.461 81.143 390.268 80.9497V80.9497Z" fill="#3197D6"/>
<path d="M519.168 82.2076L513.334 78.8195C512.966 78.61 512.486 78.61 512.116 78.8195L506.218 82.2076C505.839 82.4261 505.57 82.8367 505.57 83.2758V90.0429C505.57 90.4821 505.846 90.8928 506.225 91.1125L507.783 91.9974C508.528 92.3642 508.791 92.3642 509.13 92.3642C510.233 92.3642 510.863 91.6975 510.863 90.5345V83.8537C510.863 83.7593 510.814 83.6189 510.721 83.6189H509.977C509.883 83.6189 509.672 83.7593 509.672 83.8535V90.5344C509.672 91.0499 509.205 91.5629 508.334 91.1272L506.724 90.1992C506.668 90.1688 506.628 90.1075 506.628 90.0429V83.2758C506.628 83.212 506.702 83.148 506.758 83.1153L512.637 79.7331C512.691 79.702 512.772 79.702 512.827 79.7331L518.633 83.1145C518.689 83.148 518.669 83.2101 518.669 83.2758V90.0429C518.669 90.1075 518.694 90.1704 518.639 90.2015L512.805 93.5857C512.755 93.6157 512.693 93.6157 512.638 93.5857L511.142 92.6926C511.097 92.6664 511.044 92.657 511 92.6813C510.584 92.9172 510.507 92.9485 510.117 93.0839C510.021 93.1174 509.879 93.1755 510.171 93.3392L512.129 94.4975C512.316 94.6055 512.528 94.6623 512.744 94.6624C512.961 94.6624 513.174 94.606 513.361 94.4975L519.168 91.1125C519.548 90.8912 519.728 90.4821 519.728 90.0429V83.2758C519.728 82.8367 519.548 82.4271 519.168 82.2076V82.2076ZM514.556 88.9706C513.004 88.9706 512.662 88.5426 512.548 87.771C512.535 87.6879 512.465 87.5885 512.38 87.5885H511.622C511.528 87.5885 511.453 87.7023 511.453 87.7957C511.453 88.7836 511.99 89.9806 514.556 89.9806C516.413 89.9806 517.478 89.2588 517.478 87.9814C517.478 86.7148 516.623 86.3824 514.821 86.144C513 85.9033 512.815 85.7817 512.815 85.3551C512.815 85.0034 512.972 84.5343 514.32 84.5343C515.525 84.5343 515.969 84.7929 516.152 85.6049C516.167 85.6813 516.237 85.736 516.316 85.736H517.077C517.124 85.736 517.169 85.7171 517.202 85.6836C517.233 85.6477 517.25 85.6025 517.246 85.5541C517.128 84.1558 516.199 83.5041 514.32 83.5041C512.649 83.5041 511.652 84.2099 511.652 85.3929C511.652 86.6762 512.644 87.0308 514.248 87.1895C516.167 87.3776 516.317 87.6581 516.317 88.0356C516.317 88.6913 515.79 88.9706 514.556 88.9706Z" fill="#3197D6"/>
<defs>
<clipPath id="clip0_48_739">
<rect width="24" height="24" fill="white" transform="translate(199.57 38.6624)"/>
</clipPath>
<clipPath id="clip1_48_739">
<rect width="16" height="16" fill="white" transform="translate(457.57 74.6624)"/>
</clipPath>
<clipPath id="clip2_48_739">
<rect width="16" height="16" fill="white" transform="translate(278.57 76.6624)"/>
</clipPath>
<clipPath id="clip3_48_739">
<rect width="24" height="24" fill="white" transform="translate(381.57 36.6624)"/>
</clipPath>
<clipPath id="clip4_48_739">
<rect width="16" height="16" fill="white" transform="translate(364.57 50.6624)"/>
</clipPath>
</defs>
</svg>
